<svg width="20" height="20" viewBox="0 0 20 20" fill="none" xmlns="http://www.w3.org/2000/svg">
<path fill-rule="evenodd" clip-rule="evenodd" d="M6.49804 18.7998C6.48769 18.3853 6.40135 17.6882 6.57032 17.4149C7.43576 16.8306 8.31062 16.2463 9.17606 15.662C9.11913 15.483 8.98656 13.0666 8.9516 12.1763L8.93276 12.1763C6.42886 13.1283 3.92971 14.0945 1.43053 15.0513C1.43397 14.4813 1.42327 13.9066 1.42199 13.3319C3.94239 11.3341 6.46278 9.32691 8.98318 7.32912C8.98222 6.89575 8.98127 6.4718 8.97563 6.05256C8.958 4.48395 8.70133 1.34207 10.0154 1.24287C11.495 1.45925 11.0183 5.27018 11.0229 7.34282C13.5663 9.33485 16.1098 11.3269 18.6485 13.3142C18.6544 13.8748 18.6604 14.4259 18.6522 14.9817C16.13 14.0449 13.603 13.1033 11.0713 12.1664C11.0619 12.1758 11.0525 12.1853 11.0478 12.19C11.0445 12.7882 10.9804 15.7323 10.9851 15.7559C11.8673 16.3351 12.74 16.9143 13.6128 17.4935C13.6229 17.8233 13.7189 18.5863 13.5639 18.7983C12.7011 18.4641 10.2632 17.3293 9.97132 17.4048C8.80885 17.8714 7.65109 18.3332 6.48862 18.7998" fill="white"/>
</svg>
